<svg width="300" height="300" viewBox="0 0 300 300" fill="none" xmlns="http://www.w3.org/2000/svg">
<rect width="300" height="300" fill="#D4BDA0"/>
<path d="M56.0769 225.923H75.1538V245H56.0769V225.923ZM75.1538 206.846H94.2308V225.923H75.1538V206.846ZM94.2308 206.846H113.308V225.923H94.2308V206.846ZM113.308 225.923H132.385V245H113.308V225.923ZM132.385 225.923H151.462V245H132.385V225.923ZM151.462 225.923H170.538V245H151.462V225.923ZM170.538 225.923H189.615V245H170.538V225.923ZM189.615 206.846H208.692V225.923H189.615V206.846ZM208.692 187.769H227.769V206.846H208.692V187.769ZM208.692 168.692H227.769V187.769H208.692V168.692ZM208.692 149.615H227.769V168.692H208.692V149.615ZM208.692 130.538H227.769V149.615H208.692V130.538ZM189.615 111.462H208.692V130.538H189.615V111.462ZM170.538 92.3846H189.615V111.462H170.538V92.3846ZM151.462 73.3077H170.538V92.3846H151.462V73.3077ZM132.385 73.3077H151.462V92.3846H132.385V73.3077ZM113.308 73.3077H132.385V92.3846H113.308V73.3077ZM94.2308 73.3077H113.308V92.3846H94.2308V73.3077ZM75.1538 92.3846H94.2308V111.462H75.1538V92.3846ZM56.0769 111.462H75.1538V130.538H56.0769V111.462ZM56.0769 130.538H75.1538V149.615H56.0769V130.538ZM75.1538 149.615H94.2308V168.692H75.1538V149.615ZM75.1538 168.692H94.2308V187.769H75.1538V168.692ZM56.0769 168.692H75.1538V187.769H56.0769V168.692ZM170.538 187.769H189.615V206.846H170.538V187.769ZM151.462 187.769H170.538V206.846H151.462V187.769ZM208.692 225.923H227.769V245H208.692V225.923ZM227.769 225.923H246.846V245H227.769V225.923ZM246.846 206.846H265.923V225.923H246.846V206.846Z" fill="black"/>
</svg>
